<svg xmlns="http://www.w3.org/2000/svg" width="18" height="17" viewBox="0 0 18 17">
  <path fill="#243233" d="M8.78321 12.961954c-2.60942 0-4.73246-2.100536-4.73246-4.682446 0-2.582536 2.12304-4.683698 4.73246-4.683698 2.60942 0 4.73246 2.101162 4.73246 4.683698 0 2.58191-2.12304 4.682446-4.73246 4.682446zm8.27211-3.432127V7.029188H15.8994c-.18629-1.050268-.60015-2.021767-1.19405-2.861982l.8077-.80208-1.76232-1.774203-.81834.812708c-.85146-.593902-1.83484-1.007758-2.89886-1.19343V.075536H7.53289v1.134665c-1.06402.185672-2.04802.599528-2.89887 1.19343l-.81833-.812708-1.76233 1.774829.80771.801454c-.5939.840215-1.00776 1.811714-1.19405 2.861982H.51109v2.500639h1.15593c.18629 1.049018.60015 2.020517 1.19343 2.861357l-.80771.801454 1.76232 1.775454.81959-.813958c.85084.593902 1.83422 1.008383 2.89824 1.19343v1.135916h2.50064v-1.135916c1.06402-.185047 2.0474-.599528 2.89886-1.19343l.81834.813333 1.76232-1.774203-.8077-.801455c.59327-.84084 1.00713-1.812339 1.19405-2.861982h1.15592z"/>
</svg>
