<?xml version="1.0" encoding="UTF-8"?>
<svg width="15px" height="15px" viewBox="0 0 15 15" version="1.1" xmlns="http://www.w3.org/2000/svg" xmlns:xlink="http://www.w3.org/1999/xlink">
    <!-- Generator: Sketch 50.2 (55047) - http://www.bohemiancoding.com/sketch -->
    <title>Icon / Settings</title>
    <desc>Created with Sketch.</desc>
    <defs></defs>
    <g id="Icon-/-Settings" stroke="none" stroke-width="1" fill="none" fill-rule="evenodd">
        <path d="M15,7.49937857 C15,11.6418096 11.6418096,15 7.49937857,15 C3.35694755,15 0,11.6418096 0,7.49937857 C0,3.35694755 3.35694755,0 7.49937857,0 C11.6418096,0 15,3.35694755 15,7.49937857" id="Fill-1" fill="#243233"></path>
        <path d="M8.94307692,11.948 C8.94307692,11.948 8.48153846,10.6163077 7.49815385,10.668 C6.51476923,10.7184615 6.05323077,11.9467692 6.05323077,11.9467692 L3.716,10.2470769 C3.716,10.2470769 4.73630769,9.40646154 4.48646154,8.47846154 C4.23784615,7.54923077 2.82369231,7.49876923 2.82369231,7.49876923 L3.71723077,4.74923077 C3.71723077,4.74923077 4.95784615,5.47661538 5.63846154,4.93753846 C6.34,4.38 6.05569231,3.052 6.05569231,3.052 L8.94553846,3.052 C8.94553846,3.052 8.70184615,4.44892308 9.36276923,4.93876923 C10.0224615,5.42615385 11.284,4.75169231 11.284,4.75169231 L12.1763077,7.50123077 C12.1763077,7.50123077 10.7547692,7.50246154 10.5110769,8.47969231 C10.2698462,9.45815385 11.2815385,10.2495385 11.2815385,10.2495385 L8.94307692,11.948 Z" id="Fill-4" fill="#FFFFFF"></path>
        <path d="M9.03292308,7.50061538 C9.03292308,8.34615385 8.34615385,9.03292308 7.49938462,9.03292308 C6.65261538,9.03292308 5.96707692,8.34615385 5.96707692,7.50061538 C5.96707692,6.65507692 6.65261538,5.96707692 7.49938462,5.96707692 C8.34615385,5.96707692 9.03292308,6.65507692 9.03292308,7.50061538" id="Fill-6" fill="#243233"></path>
    </g>
</svg>