<?xml version="1.0" encoding="UTF-8"?>
<svg width="15px" height="15px" viewBox="0 0 15 15" version="1.1" xmlns="http://www.w3.org/2000/svg" xmlns:xlink="http://www.w3.org/1999/xlink">
    <!-- Generator: Sketch 50.2 (55047) - http://www.bohemiancoding.com/sketch -->
    <title>Icon / Attachment</title>
    <desc>Created with Sketch.</desc>
    <defs></defs>
    <g id="Icon-/-Attachment" stroke="none" stroke-width="1" fill="none" fill-rule="evenodd">
        <path d="M15,7.57673438 C15,11.7192344 11.6425,15.0767344 7.5,15.0767344 C3.3575,15.0767344 0,11.7192344 0,7.57673438 C0,3.43423438 3.3575,0.076734375 7.5,0.076734375 C11.6425,0.076734375 15,3.43423438 15,7.57673438" id="Fill-1" fill="#243233"></path>
        <path d="M6.679125,9.52198438 L6.679125,6.63448438 C6.679125,6.07198438 6.825375,5.64073438 7.435375,5.64073438 C8.046625,5.64073438 8.364125,6.07198438 8.364125,6.63448438 L8.364125,9.41698438 C8.364125,10.3457344 8.195375,11.4282344 6.854125,11.4282344 C5.901625,11.4282344 4.885375,10.8082344 4.885375,9.45073438 L4.885375,6.40323438 C4.885375,5.04573438 5.986625,3.72573438 7.344125,3.72573438 C8.700375,3.72573438 10.114125,4.91823438 10.114125,6.27448438 L10.114125,10.3119844" id="Stroke-4" stroke="#FFFFFF"></path>
    </g>
</svg>