<svg xmlns="http://www.w3.org/2000/svg" xmlns:xlink="http://www.w3.org/1999/xlink" width="16" height="15" viewBox="0 0 16 15"><defs><path id="1o9ca" d="M668.82 681.63a7.5 7.5 0 1 1-15 0 7.5 7.5 0 0 1 15 0"/><path id="1o9cb" d="M661.32 682.69c-2 0-3.8.78-5.14 2.04a6 6 0 0 0 10.27 0 7.46 7.46 0 0 0-5.13-2.04"/><path id="1o9cc" d="M663.58 679.7c0 1.68-1.02 3.56-2.27 3.56s-2.26-1.88-2.26-3.56c0-1.68 1.01-2.52 2.26-2.52 1.25 0 2.27.84 2.27 2.52"/></defs><g><g transform="translate(-653 -674)"><g><use fill="#243233" xlink:href="#1o9ca"/></g><g><use fill="#fff" xlink:href="#1o9cb"/></g><g><use fill="#fff" xlink:href="#1o9cc"/></g></g></g></svg>