<?xml version="1.0" encoding="utf-8"?>
<!-- Generator: Adobe Illustrator 16.0.0, SVG Export Plug-In . SVG Version: 6.00 Build 0)  -->
<!DOCTYPE svg PUBLIC "-//W3C//DTD SVG 1.1//EN" "http://www.w3.org/Graphics/SVG/1.1/DTD/svg11.dtd">
<svg version="1.1" id="Layer_1" xmlns="http://www.w3.org/2000/svg" xmlns:xlink="http://www.w3.org/1999/xlink" x="0px" y="0px"
	 width="12px" height="12px" viewBox="0 0 12 12" enable-background="new 0 0 12 12" xml:space="preserve">
	<circle fill="#243233" cx="6" cy="6" r="6"/>
	<path fill="#FFFFFF" d="M7.173,9.613c0,0-0.375-1.082-1.173-1.039C5.2,8.615,4.825,9.613,4.825,9.613L2.926,8.232
		c0,0,0.829-0.684,0.626-1.438C3.35,6.04,2.201,5.999,2.201,5.999l0.726-2.233c0,0,1.008,0.591,1.562,0.152
		c0.57-0.453,0.339-1.531,0.339-1.531h2.348c0,0-0.199,1.135,0.338,1.532C8.05,4.315,9.075,3.767,9.075,3.767L9.8,6
		c0,0-1.156,0.001-1.354,0.795C8.251,7.59,9.073,8.234,9.073,8.234L7.173,9.613z"/>
	<circle fill="#243233" cx="6" cy="6" r="1"/>
</svg>
