<svg xmlns="http://www.w3.org/2000/svg" width="12" height="15" viewBox="0 0 12 15">
  <path fill="#666" d="M12 12.887C12 14.054 9.314 15 6 15s-6-.945-6-2.112v-3.55c0-1.166 2.686-2.112 6-2.112s6 .946 6 2.112v3.549z"/>
  <path fill="#999" d="M12 9.292c0 1.165-2.686 2.11-6 2.11s-6-.945-6-2.11V5.739c0-1.166 2.686-2.111 6-2.111s6 .945 6 2.111v3.553z"/>
  <path fill="#CCC" d="M12 5.662c0 1.167-2.686 2.112-6 2.112s-6-.945-6-2.112V2.111C0 .945 2.686 0 6 0s6 .945 6 2.111v3.551z"/>
  <ellipse cx="6" cy="2.111" fill="#FFF" rx="6" ry="2.112"/>
</svg>
