<?xml version="1.0" encoding="utf-8"?>
<!-- Generator: Adobe Illustrator 16.0.0, SVG Export Plug-In . SVG Version: 6.00 Build 0)  -->
<!DOCTYPE svg PUBLIC "-//W3C//DTD SVG 1.1//EN" "http://www.w3.org/Graphics/SVG/1.1/DTD/svg11.dtd">
<svg version="1.1" id="Layer_1" xmlns="http://www.w3.org/2000/svg" xmlns:xlink="http://www.w3.org/1999/xlink" x="0px" y="0px"
	 width="15px" height="15px" viewBox="0 0 15 15" enable-background="new 0 0 15 15" xml:space="preserve">
<g>
	<path fill="#243233" stroke="#243233" stroke-miterlimit="10" d="M8.496,13.32c0,0.551-0.446,0.996-0.996,0.996l0,0
		c-0.55,0-0.996-0.445-0.996-0.996v-0.771h1.992V13.32z"/>
	<path fill="none" stroke="#243233" stroke-width="1.25" stroke-miterlimit="10" d="M13.5,11.021c0-0.791-1.628-0.793-1.9-3.417
		c-0.455-4.36-2.026-5.67-4.1-5.67s-3.644,1.31-4.099,5.67C3.128,10.229,1.5,10.23,1.5,11.021c0,0.844,2.311,1.526,5.758,1.526
		c0.124,0,0.247-0.002,0.368-0.004c0.04,0.002,0.074,0.004,0.115,0.004c3.284,0,5.534-0.621,5.737-1.41
		C13.491,11.1,13.5,11.061,13.5,11.021z"/>
	<line fill="none" stroke="#243233" stroke-miterlimit="10" x1="7.5" y1="0" x2="7.5" y2="1.936"/>
</g>
</svg>
