<?xml version="1.0" encoding="utf-8"?>
<svg xmlns="http://www.w3.org/2000/svg" viewBox="0 0 40 40">
    <defs>
        <linearGradient id="logogradient" x1="0%" y1="0%" y2="100%">
            <stop offset="0%" stop-color="#00CF79"/>
            <stop offset="100%" stop-color="#00CFCD"/>
        </linearGradient>
    </defs>

    <path fill="url(#logogradient)" fill-rule="evenodd" d="M39.896508 9.59297569c1.3781124.0102848 2.786143.08170699 4.1107601.44126671 1.2546992.3571926 2.3854164 1.1809557 3.0106115 2.3493411 1.1575461 1.9581924.6786092 4.6826836-1.0950265 6.1090868-1.2037243 1.0412947-2.9032959 1.4071395-4.4435199.9871771-3.9377542-.7204255-8.1186759 1.4983967-9.9236932 5.0326931-1.9029023 3.5262972-1.2589269 8.2320808 1.5211999 11.0946822 1.983389 2.1473183 4.975383 3.2410981 7.8867276 3.0239747 2.1150946-.032242 4.2401079.0757483 6.3490238-.0561583 1.5240454-.2853622 2.5629751-1.8817094 2.3534656-3.4053284.0416255-2.680087-.094389-5.3765808.0725194-8.0463014.4098321-2.4569233 2.9109381-4.3299805 5.3808249-3.9688699 2.4319199.2724655 4.4510809 2.6023798 4.2549045 5.0846069.0289427 4.6830102.0039024 9.3665917.0113007 14.0498467.007317 1.2216867.0633325 2.5176526-.6136506 3.5939646-.9183622 1.6514442-2.8079313 2.6786994-4.6886388 2.5050006-5.1639985-.0195084-10.3302733.0652187-15.4926458-.0484854-6.2527649-.4275537-12.1574042-4.1778308-15.2589903-9.6292621-3.2273567-5.5262001-3.452801-12.6938862-.5590984-18.3985193 2.6838678-5.4085779 8.0054252-9.445605 13.9582753-10.43049656 1.0436451-.18235106 2.1031436-.27924036 3.1656502-.28821915m14.3265633 1.35702161c2.7582571.0035915 5.2422902 2.4121926 5.3276549 5.1883527.1713799 2.6027062-1.7492457 5.1387245-4.283522 5.6422714-2.4074486.540115-5.0501788-.729241-6.0847183-2.9665105-1.0823438-2.2122921-.477067-5.1350513 1.4989238-6.6576092 1.0006375-.799602 2.2633041-1.2371955 3.5416616-1.2065044" transform="translate(-20 -9)"/>
</svg>