<svg xmlns="http://www.w3.org/2000/svg" width="110" height="110" viewBox="-3.924 -5 110 110">
  <circle cx="51.076" cy="50" r="50" fill="#FFF"/>
  <linearGradient id="emptystate-grad-a" x1="-88.505" x2="-88.492" y1="172.788" y2="172.749" gradientTransform="matrix(1 0 0 -1 179 253.5)" gradientUnits="userSpaceOnUse">
    <stop offset="0" stop-color="#455c5c"/>
    <stop offset="1"/>
  </linearGradient>
  <path fill="url(#emptystate-grad-a)" d="M90.53 80.697h-.003l-.054.068.057-.068z"/>
  <linearGradient id="emptystate-grad-b" x1="-90.245" x2="-90.229" y1="170.685" y2="170.637" gradientTransform="matrix(1 0 0 -1 179 253.5)" gradientUnits="userSpaceOnUse">
    <stop offset="0" stop-color="#455c5c"/>
    <stop offset="1"/>
  </linearGradient>
  <path fill="url(#emptystate-grad-b)" d="M88.724 82.883l.076-.089-.076.089z"/>
  <path fill="none" stroke="#D9D9D9" stroke-linecap="round" stroke-linejoin="round" stroke-miterlimit="10" d="M62.576 10.497v4.447m2.226-2.224h-4.449"/>
  <path fill="none" stroke="#000" stroke-linecap="round" stroke-linejoin="round" stroke-miterlimit="10" d="M78.326 31.037v4.447m2.226-2.224h-4.449"/>
  <path fill="none" stroke="#D9D9D9" stroke-linecap="round" stroke-linejoin="round" stroke-miterlimit="10" d="M57.326 28.813v4.448m2.226-2.224h-4.449m35.426 10.065l-3.144 3.145m3.145.001l-3.146-3.146"/>
  <path fill="none" stroke="#000" stroke-linecap="round" stroke-linejoin="round" stroke-miterlimit="10" d="M32.701 44.249l-3.144 3.145m3.145 0l-3.146-3.146"/>
  <linearGradient id="emptystate-grad-c" x1="-174.283" x2="-151.511" y1="238.286" y2="215.513" gradientTransform="matrix(1 0 0 -1 179 253.5)" gradientUnits="userSpaceOnUse">
    <stop offset="0" stop-color="#00cf79"/>
    <stop offset="1" stop-color="#00cfcd"/>
  </linearGradient>
  <circle cx="16.103" cy="26.6" r="16.103" fill="url(#emptystate-grad-c)" opacity=".8"/>
  <linearGradient id="emptystate-grad-d" x1="-136.704" x2="-123.984" y1="195.157" y2="155.558" gradientTransform="matrix(1 0 0 -1 179 253.5)" gradientUnits="userSpaceOnUse">
    <stop offset="0" stop-color="#455c5c"/>
    <stop offset="1"/>
  </linearGradient>
  <path fill="url(#d)" d="M35.326 62.158c-11.555-2.397-23.603.587-31.723 3.535C10.187 85.617 28.946 100 51.076 100c16.039 0 30.305-7.561 39.453-19.303-22.022-1.815-37.071-14.779-55.203-18.539z"/>
  <linearGradient id="emptystate-grad-e" x1="-112.16" x2="-86.776" y1="190.218" y2="186.155" gradientTransform="matrix(1 0 0 -1 179 253.5)" gradientUnits="userSpaceOnUse">
    <stop offset="0" stop-color="#c6d4d4"/>
    <stop offset="1" stop-color="#f2f7f7"/>
  </linearGradient>
  <path fill="url(#emptystate-grad-e)" d="M100.834 54.914c-9.155-1.419-24.745 1.229-38.743 9.083-3.258 1.827-6.782 3.032-10.247 3.812 11.776 5.166 23.593 11.645 38.684 12.889 5.656-7.262 9.363-16.115 10.306-25.784z"/>
</svg>
