<svg width="5px" height="19px" viewBox="0 0 5 19" version="1.1" xmlns="http://www.w3.org/2000/svg" xmlns:xlink="http://www.w3.org/1999/xlink">
  <path stroke="none" stroke-width="1" fill="none" fill-rule="evenodd" transform="translate(-1112.000000, -451.000000)" fill="#242934" d="M1116.94692,467.385116 C1116.94692,468.489516 1116.05132,469.385116 1114.94692,469.385116 C1113.84172,469.385116 1112.94692,468.489516 1112.94692,467.385116 C1112.94692,466.280316 1113.84172,465.385116 1114.94692,465.385116 C1116.05132,465.385116 1116.94692,466.280316 1116.94692,467.385116 Z M1116.94692,460.575661 C1116.94692,461.680061 1116.05132,462.575661 1114.94692,462.575661 C1113.84172,462.575661 1112.94692,461.680061 1112.94692,460.575661 C1112.94692,459.470861 1113.84172,458.575661 1114.94692,458.575661 C1116.05132,458.575661 1116.94692,459.470861 1116.94692,460.575661 Z M1114.94692,451.766205 C1116.05132,451.766205 1116.94692,452.661805 1116.94692,453.766205 C1116.94692,454.871005 1116.05132,455.766205 1114.94692,455.766205 C1113.84172,455.766205 1112.94692,454.871005 1112.94692,453.766205 C1112.94692,452.661805 1113.84172,451.766205 1114.94692,451.766205 Z"/>
</svg>
