<?xml version="1.0" encoding="UTF-8"?>
<svg width="4px" height="18px" viewBox="0 0 4 18" version="1.1" xmlns="http://www.w3.org/2000/svg" xmlns:xlink="http://www.w3.org/1999/xlink">
    <!-- Generator: Sketch 50.2 (55047) - http://www.bohemiancoding.com/sketch -->
    <title>Icon / Bare / Dots vertical</title>
    <desc>Created with Sketch.</desc>
    <defs></defs>
    <g id="Icon-/-Bare-/-Dots-vertical" stroke="none" stroke-width="1" fill="none" fill-rule="evenodd">
        <g id="Icon-/-Bare-/-Dots-horizontal" transform="translate(2.000000, 9.000000) rotate(90.000000) translate(-2.000000, -9.000000) translate(-7.000000, 7.000000)" fill="#242934">
            <path d="M11.0001237,9.00054494 C11.0001237,10.1050133 10.1045237,11.0006687 9.00012372,11.0006687 C7.89492372,11.0006687 7.00012372,10.1050133 7.00012372,9.00054494 C7.00012372,7.8956766 7.89492372,7.00042122 9.00012372,7.00042122 C10.1045237,7.00042122 11.0001237,7.8956766 11.0001237,9.00054494 Z M10.9995788,2 C10.9995788,3.10446832 10.1039788,4.00012372 8.99957878,4.00012372 C7.89437878,4.00012372 6.99957878,3.10446832 6.99957878,2 C6.99957878,0.895131659 7.89437878,-0.00012371655 8.99957878,-0.00012371655 C10.1039788,-0.00012371655 10.9995788,0.895131659 10.9995788,2 Z M9.00012372,-7.00012372 C10.1045237,-7.00012372 11.0001237,-6.10446832 11.0001237,-5 C11.0001237,-3.89513166 10.1045237,-2.99987628 9.00012372,-2.99987628 C7.89492372,-2.99987628 7.00012372,-3.89513166 7.00012372,-5 C7.00012372,-6.10446832 7.89492372,-7.00012372 9.00012372,-7.00012372 Z" id="Combined-Shape" transform="translate(8.999851, 2.000272) rotate(90.000000) translate(-8.999851, -2.000272) "></path>
        </g>
    </g>
</svg>