<svg id="SVGDoc" width="18" height="4" xmlns="http://www.w3.org/2000/svg" version="1.1"
     viewBox="0 0 18 4">

    <g transform="matrix(1,0,0,1,-575,-2477)">
        <path fill="#242934" fill-opacity="1" d="M576.71054,2481.19946c-1.1044,0 -2,-0.8956 -2,-2c0,-1.1052 0.8956,-2 2,-2c1.1048,0 2,0.8948 2,2c0,1.1044 -0.8952,2 -2,2zM583.52,2481.19946c-1.1044,0 -2,-0.8956 -2,-2c0,-1.1052 0.8956,-2 2,-2c1.1048,0 2,0.8948 2,2c0,1.1044 -0.8952,2 -2,2zM592.32946,2479.19946c0,1.1044 -0.8956,2 -2,2c-1.1048,0 -2,-0.8956 -2,-2c0,-1.1052 0.8952,-2 2,-2c1.1044,0 2,0.8948 2,2"/>
    </g>
</svg>