<?xml version="1.0" encoding="utf-8"?>
<!-- Generator: Adobe Illustrator 16.0.0, SVG Export Plug-In . SVG Version: 6.00 Build 0)  -->
<!DOCTYPE svg PUBLIC "-//W3C//DTD SVG 1.1//EN" "http://www.w3.org/Graphics/SVG/1.1/DTD/svg11.dtd">
<svg version="1.1" id="Layer_1" xmlns="http://www.w3.org/2000/svg" xmlns:xlink="http://www.w3.org/1999/xlink" x="0px" y="0px"
	 width="12px" height="18px" viewBox="3 -4 12 18" enable-background="new 3 -4 12 18" xml:space="preserve">
<g>
	<path fill="#0D388C" d="M15,10.421c0,1.148-2.686,2.08-6,2.08s-6-0.932-6-2.08V6.849c0-1.149,2.686-0.928,6-0.928s6-0.222,6,0.928
		V10.421z"/>
	<path fill="#0056CF" d="M15,6.802c0,1.148-2.686,2.08-6,2.08S3,7.95,3,6.802V3.23c0-1.149,2.686-0.928,6-0.928s6-0.222,6,0.928
		V6.802z"/>
	<g>
		<path fill="#5B92E3" d="M15,3.153c0,1.149-2.686,2.081-6,2.081S3,4.302,3,3.153v-3.572C3-1.568,5.686-2.5,9-2.5s6,0.932,6,2.081
			V3.153z"/>
		<ellipse fill="#B3D1FF" cx="9" cy="-0.419" rx="6" ry="2.081"/>
	</g>
</g>
</svg>
