<?xml version="1.0" encoding="UTF-8" standalone="no"?>
<svg
   xmlns:dc="http://purl.org/dc/elements/1.1/"
   xmlns:cc="http://creativecommons.org/ns#"
   xmlns:rdf="http://www.w3.org/1999/02/22-rdf-syntax-ns#"
   xmlns="http://www.w3.org/2000/svg"
   id="svg4301"
   xml:space="preserve"
   enable-background="new 0 0 95.235 100.004"
   viewBox="0 0 95.235 100.004"
   y="0px"
   x="0px"
   version="1.1"><metadata
     id="metadata4311"><rdf:RDF><cc:Work
         rdf:about=""><dc:format>image/svg+xml</dc:format><dc:type
           rdf:resource="http://purl.org/dc/dcmitype/StillImage" /><dc:title></dc:title></cc:Work></rdf:RDF></metadata><defs
     id="defs4309" /><circle
     r="41.209274"
     cy="50.001999"
     cx="47.6175"
     id="path4853"
     style="opacity:1;fill:#4a76bb;fill-opacity:1;fill-rule:nonzero;stroke:none;stroke-width:3.29999995;stroke-linecap:round;stroke-linejoin:round;stroke-miterlimit:4;stroke-dasharray:none;stroke-opacity:1" /><g
     transform="matrix(0.8953773,0,0,0.8953773,6.5750386,8.1054888)"
     style="fill:#ffffff;fill-opacity:1"
     id="g4855"><path
       style="fill:#ffffff;fill-opacity:1"
       d="m 64.207346,58.877495 c 1.072513,2.141581 5.898247,13.397226 5.898247,15.011737 0,8.829289 -11.793623,8.829289 -11.793623,0 5.73e-4,-1.614511 4.826308,-13.404116 5.895376,-15.011737 z"
       id="path4303" /><path
       style="fill:#ffffff;fill-opacity:1"
       d="m 71.174661,52.889681 c 0,-1.218348 0,-3.246247 0,-6.808276 0,-4.313593 -3.916854,-8.042125 -9.108896,-8.042125 0,0 -0.03043,0 -12.130077,0 l -0.06717,-3.7848 c 0,-1.088015 -0.885914,-1.975652 -1.977374,-1.975652 l -4.743057,0 0,-2.429804 c 0.411092,-0.242866 0.751564,-0.54774 1.039212,-0.920937 1.424468,0 4.306129,0 10.099881,0 0.676923,0.866967 1.674796,1.46925 2.855824,1.46925 2.011249,0 3.648152,-1.631735 3.648152,-3.648152 -5.74e-4,-2.019861 -1.637477,-3.655041 -3.648726,-3.655041 -1.207438,0 -2.231723,0.637307 -2.893144,1.545613 -1.595564,0 -4.582295,0 -10.013758,0 -0.672904,-0.908306 -1.689725,-1.545613 -2.900608,-1.545613 -1.203993,0 -2.231722,0.637307 -2.893144,1.545613 -3.098689,0 -6.773252,0 -11.056989,0 -0.661995,-0.908306 -1.68226,-1.545613 -2.886254,-1.545613 -2.018139,0 -3.652171,1.63518 -3.652171,3.653893 0,2.016991 1.633458,3.648152 3.652171,3.648152 1.173563,0 2.175456,-0.60171 2.836877,-1.469251 1.828095,0 5.158168,0 11.150575,0 0.291669,0.381236 0.639031,0.691277 1.057586,0.924956 l 0,2.425786 -5.035299,0 c -1.088015,0 -1.973929,0.887636 -1.973929,1.975652 l 0,3.784799 c -1.237294,0 -4.780951,0 -14.739016,0 l 0,11.793624 c 0.347361,0 2.736401,0 16.394866,0 1.607046,3.223855 3.749201,4.820567 6.967314,4.820567 3.214669,0 5.894804,-1.596139 7.502425,-4.820567 0,0 0,0 5.898247,0 1.760345,0 2.410858,1.132799 2.597457,3.304236 -0.515588,0.35138 -0.870987,0.921511 -0.870987,1.596138 0,1.09146 0.885914,1.977374 1.97393,1.977374 l 12.238015,0 c 1.090887,0 1.9768,-0.885914 1.9768,-1.977374 0.0023,-0.853762 -0.539127,-1.565708 -1.298728,-1.842448 z"
       id="path4305" /></g></svg>