<svg xmlns="http://www.w3.org/2000/svg" width="21" height="17" viewBox="0 0 21 17">
  <g fill="#243233">
    <path d="M3.79093307 8.85026787c0 1.00597671-.81505582 1.82103253-1.82103253 1.82103253S.148868 9.85624458.148868 8.85026787s.81505583-1.82103254 1.82103254-1.82103254 1.82103253.81505583 1.82103253 1.82103254"/>
    <path d="M3.79093307 2.71626354c0 1.00597671-.81505582 1.82103253-1.82103253 1.82103253S.148868 3.72224025.148868 2.71626354.96392383.895231 1.96990054.895231s1.82103253.81505583 1.82103253 1.82103254"/>
    <path d="M3.79093307 14.9842722c0 1.0059767-.81505582 1.8210325-1.82103253 1.8210325S.148868 15.9902489.148868 14.9842722c0-1.0059767.81505583-1.8210325 1.82103254-1.8210325s1.82103253.8150558 1.82103253 1.8210325"/>
  </g>
  <g stroke="#243233" stroke-width="4">
    <path d="M6.28287233 8.85026787H20.4677574"/>
    <path d="M6.28287233 2.71626354H20.4677574"/>
    <path d="M6.28287233 14.9842722H20.4677574"/>
  </g>
</svg>
